<svg width="26" height="25" viewBox="0 0 26 25" fill="none" xmlns="http://www.w3.org/2000/svg">
<path d="M2.626 7.43C2.47 7.326 2.392 7.17 2.392 6.962C2.392 6.858 2.42667 6.754 2.496 6.65C2.496 6.63267 2.548 6.572 2.652 6.468L4.524 4.752L1.976 4.466L1.768 4.414C1.62933 4.37933 1.52533 4.284 1.456 4.128C1.404 4.04133 1.378 3.946 1.378 3.842C1.378 3.79 1.38667 3.738 1.404 3.686L1.872 2.308C1.90667 2.16933 2.002 2.06533 2.158 1.996C2.24467 1.944 2.34 1.918 2.444 1.918C2.47867 1.918 2.522 1.92667 2.574 1.944L2.782 2.048L5.018 3.322L4.498 0.799999L4.472 0.592C4.472 0.453333 4.524 0.323333 4.628 0.201999C4.74933 0.0806659 4.888 0.0199995 5.044 0.0199995H6.474C6.63 0.0199995 6.76 0.0806659 6.864 0.201999C6.98533 0.323333 7.046 0.453333 7.046 0.592L7.02 0.799999L6.5 3.322L8.762 2.048L8.97 1.944C9.00467 1.92667 9.048 1.918 9.1 1.918C9.23867 1.918 9.36 1.95267 9.464 2.022C9.58533 2.09133 9.65467 2.18667 9.672 2.308L10.14 3.686L10.166 3.842C10.166 3.96333 10.1227 4.08467 10.036 4.206C9.96667 4.31 9.87133 4.37933 9.75 4.414L9.568 4.466L6.994 4.752L8.892 6.468C8.996 6.572 9.048 6.63267 9.048 6.65C9.11733 6.754 9.152 6.858 9.152 6.962C9.152 7.17 9.074 7.326 8.918 7.43L7.774 8.288C7.67 8.34 7.55733 8.366 7.436 8.366C7.21067 8.366 7.05467 8.29667 6.968 8.158C6.968 8.14067 6.95933 8.12333 6.942 8.106C6.92467 8.08867 6.89867 8.04533 6.864 7.976L5.772 5.61L4.68 7.976C4.64533 8.04533 4.61933 8.08867 4.602 8.106C4.58467 8.12333 4.576 8.14067 4.576 8.158C4.48933 8.29667 4.33333 8.366 4.108 8.366C3.98667 8.366 3.874 8.34 3.77 8.288L2.626 7.43ZM14.2295 7.43C14.0735 7.326 13.9955 7.17 13.9955 6.962C13.9955 6.858 14.0302 6.754 14.0995 6.65C14.0995 6.63267 14.1515 6.572 14.2555 6.468L16.1275 4.752L13.5795 4.466L13.3715 4.414C13.2328 4.37933 13.1288 4.284 13.0595 4.128C13.0075 4.04133 12.9815 3.946 12.9815 3.842C12.9815 3.79 12.9902 3.738 13.0075 3.686L13.4755 2.308C13.5102 2.16933 13.6055 2.06533 13.7615 1.996C13.8482 1.944 13.9435 1.918 14.0475 1.918C14.0822 1.918 14.1255 1.92667 14.1775 1.944L14.3855 2.048L16.6215 3.322L16.1015 0.799999L16.0755 0.592C16.0755 0.453333 16.1275 0.323333 16.2315 0.201999C16.3528 0.0806659 16.4915 0.0199995 16.6475 0.0199995H18.0775C18.2335 0.0199995 18.3635 0.0806659 18.4675 0.201999C18.5888 0.323333 18.6495 0.453333 18.6495 0.592L18.6235 0.799999L18.1035 3.322L20.3655 2.048L20.5735 1.944C20.6082 1.92667 20.6515 1.918 20.7035 1.918C20.8422 1.918 20.9635 1.95267 21.0675 2.022C21.1888 2.09133 21.2582 2.18667 21.2755 2.308L21.7435 3.686L21.7695 3.842C21.7695 3.96333 21.7262 4.08467 21.6395 4.206C21.5702 4.31 21.4748 4.37933 21.3535 4.414L21.1715 4.466L18.5975 4.752L20.4955 6.468C20.5995 6.572 20.6515 6.63267 20.6515 6.65C20.7208 6.754 20.7555 6.858 20.7555 6.962C20.7555 7.17 20.6775 7.326 20.5215 7.43L19.3775 8.288C19.2735 8.34 19.1608 8.366 19.0395 8.366C18.8142 8.366 18.6582 8.29667 18.5715 8.158C18.5715 8.14067 18.5628 8.12333 18.5455 8.106C18.5282 8.08867 18.5022 8.04533 18.4675 7.976L17.3755 5.61L16.2835 7.976C16.2488 8.04533 16.2228 8.08867 16.2055 8.106C16.1882 8.12333 16.1795 8.14067 16.1795 8.158C16.0928 8.29667 15.9368 8.366 15.7115 8.366C15.5902 8.366 15.4775 8.34 15.3735 8.288L14.2295 7.43ZM2.626 23.43C2.47 23.326 2.392 23.17 2.392 22.962C2.392 22.858 2.42667 22.754 2.496 22.65C2.496 22.6327 2.548 22.572 2.652 22.468L4.524 20.752L1.976 20.466L1.768 20.414C1.62933 20.3793 1.52533 20.284 1.456 20.128C1.404 20.0413 1.378 19.946 1.378 19.842C1.378 19.79 1.38667 19.738 1.404 19.686L1.872 18.308C1.90667 18.1693 2.002 18.0653 2.158 17.996C2.24467 17.944 2.34 17.918 2.444 17.918C2.47867 17.918 2.522 17.9267 2.574 17.944L2.782 18.048L5.018 19.322L4.498 16.8L4.472 16.592C4.472 16.4533 4.524 16.3233 4.628 16.202C4.74933 16.0807 4.888 16.02 5.044 16.02H6.474C6.63 16.02 6.76 16.0807 6.864 16.202C6.98533 16.3233 7.046 16.4533 7.046 16.592L7.02 16.8L6.5 19.322L8.762 18.048L8.97 17.944C9.00467 17.9267 9.048 17.918 9.1 17.918C9.23867 17.918 9.36 17.9527 9.464 18.022C9.58533 18.0913 9.65467 18.1867 9.672 18.308L10.14 19.686L10.166 19.842C10.166 19.9633 10.1227 20.0847 10.036 20.206C9.96667 20.31 9.87133 20.3793 9.75 20.414L9.568 20.466L6.994 20.752L8.892 22.468C8.996 22.572 9.048 22.6327 9.048 22.65C9.11733 22.754 9.152 22.858 9.152 22.962C9.152 23.17 9.074 23.326 8.918 23.43L7.774 24.288C7.67 24.34 7.55733 24.366 7.436 24.366C7.21067 24.366 7.05467 24.2967 6.968 24.158C6.968 24.1407 6.95933 24.1233 6.942 24.106C6.92467 24.0887 6.89867 24.0453 6.864 23.976L5.772 21.61L4.68 23.976C4.64533 24.0453 4.61933 24.0887 4.602 24.106C4.58467 24.1233 4.576 24.1407 4.576 24.158C4.48933 24.2967 4.33333 24.366 4.108 24.366C3.98667 24.366 3.874 24.34 3.77 24.288L2.626 23.43ZM14.2295 23.43C14.0735 23.326 13.9955 23.17 13.9955 22.962C13.9955 22.858 14.0302 22.754 14.0995 22.65C14.0995 22.6327 14.1515 22.572 14.2555 22.468L16.1275 20.752L13.5795 20.466L13.3715 20.414C13.2328 20.3793 13.1288 20.284 13.0595 20.128C13.0075 20.0413 12.9815 19.946 12.9815 19.842C12.9815 19.79 12.9902 19.738 13.0075 19.686L13.4755 18.308C13.5102 18.1693 13.6055 18.0653 13.7615 17.996C13.8482 17.944 13.9435 17.918 14.0475 17.918C14.0822 17.918 14.1255 17.9267 14.1775 17.944L14.3855 18.048L16.6215 19.322L16.1015 16.8L16.0755 16.592C16.0755 16.4533 16.1275 16.3233 16.2315 16.202C16.3528 16.0807 16.4915 16.02 16.6475 16.02H18.0775C18.2335 16.02 18.3635 16.0807 18.4675 16.202C18.5888 16.3233 18.6495 16.4533 18.6495 16.592L18.6235 16.8L18.1035 19.322L20.3655 18.048L20.5735 17.944C20.6082 17.9267 20.6515 17.918 20.7035 17.918C20.8422 17.918 20.9635 17.9527 21.0675 18.022C21.1888 18.0913 21.2582 18.1867 21.2755 18.308L21.7435 19.686L21.7695 19.842C21.7695 19.9633 21.7262 20.0847 21.6395 20.206C21.5702 20.31 21.4748 20.3793 21.3535 20.414L21.1715 20.466L18.5975 20.752L20.4955 22.468C20.5995 22.572 20.6515 22.6327 20.6515 22.65C20.7208 22.754 20.7555 22.858 20.7555 22.962C20.7555 23.17 20.6775 23.326 20.5215 23.43L19.3775 24.288C19.2735 24.34 19.1608 24.366 19.0395 24.366C18.8142 24.366 18.6582 24.2967 18.5715 24.158C18.5715 24.1407 18.5628 24.1233 18.5455 24.106C18.5282 24.0887 18.5022 24.0453 18.4675 23.976L17.3755 21.61L16.2835 23.976C16.2488 24.0453 16.2228 24.0887 16.2055 24.106C16.1882 24.1233 16.1795 24.1407 16.1795 24.158C16.0928 24.2967 15.9368 24.366 15.7115 24.366C15.5902 24.366 15.4775 24.34 15.3735 24.288L14.2295 23.43Z" fill="#195e96"/>
</svg>
